<svg width="1200" height="630" viewBox="0 0 1200 630" fill="none" xmlns="http://www.w3.org/2000/svg">
  <rect width="1200" height="630" rx="32" fill="#140F13"/>
  <circle cx="192" cy="109" r="291" fill="url(#paint0_radial)" fill-opacity="0.36"/>
  <circle cx="1021" cy="533" r="299" fill="url(#paint1_radial)" fill-opacity="0.25"/>
  <rect x="85" y="94" width="1030" height="442" rx="28" fill="url(#paint2_linear)" fill-opacity="0.12" stroke="rgba(255,255,255,0.15)"/>
  <g filter="url(#filter0_d)">
    <rect x="135" y="164" width="118" height="118" rx="28" fill="url(#paint3_linear)"/>
    <path d="M167.45 183.6H188.7V256.2H226.95V275.325H167.45V183.6Z" fill="#6B4A2B"/>
    <path d="M239.7 265.95C230.35 274.025 218.238 278.063 203.363 278.063C187.638 278.063 175.488 273.6 166.913 264.675C166.913 264.675 179.35 258.3 192.888 258.3C200.088 258.3 207.025 259.988 213.7 263.363V216.038C213.7 198.938 225.1 188.475 244.363 188.475C257.788 188.475 269.15 192.225 278.45 199.725L269.9 215.55C262.4 209.95 253.838 207.15 244.213 207.15C236.525 207.15 231.45 210.15 231.45 216.75V265.95H239.7Z" fill="#BA7589"/>
  </g>
  <text fill="#F5EDE3" font-family="Georgia, serif" font-size="64" letter-spacing="0.18em">
    <tspan x="315" y="250">LEONOR GRANADOS</tspan>
  </text>
  <text fill="#D7B17C" font-family="Arial, sans-serif" font-size="24" letter-spacing="0.4em">
    <tspan x="319" y="302">NEGOCIOS INMOBILIARIOS</tspan>
  </text>
  <text fill="#F5EDE3" fill-opacity="0.75" font-family="Arial, sans-serif" font-size="24" letter-spacing="0.16em">
    <tspan x="319" y="378">PLATAFORMA PREMIUM PARA VENTA, ALQUILER E INVERSIÓN</tspan>
  </text>
  <text fill="#8D6546" font-family="Arial, sans-serif" font-size="22" letter-spacing="0.18em">
    <tspan x="319" y="432">TRISTÁN SUÁREZ · EZEIZA · BUENOS AIRES</tspan>
  </text>
  <defs>
    <filter id="filter0_d" x="111" y="146" width="191" height="165" filterUnits="userSpaceOnUse" color-interpolation-filters="sRGB">
      <feFlood flood-opacity="0" result="BackgroundImageFix"/>
      <feColorMatrix in="SourceAlpha" type="matrix" values="0 0 0 0 0 0 0 0 0 0 0 0 0 0 0 0 0 0 127 0" result="hardAlpha"/>
      <feOffset dy="8"/>
      <feGaussianBlur stdDeviation="12"/>
      <feComposite in2="hardAlpha" operator="out"/>
      <feColorMatrix type="matrix" values="0 0 0 0 0.286275 0 0 0 0 0.156863 0 0 0 0 0.211765 0 0 0 0.3 0"/>
      <feBlend mode="normal" in2="BackgroundImageFix" result="effect1_dropShadow_1_2"/>
      <feBlend mode="normal" in="SourceGraphic" in2="effect1_dropShadow_1_2" result="shape"/>
    </filter>
    <radialGradient id="paint0_radial" cx="0" cy="0" r="1" gradientUnits="userSpaceOnUse" gradientTransform="translate(192 109) rotate(90) scale(291)">
      <stop stop-color="#D7B17C"/>
      <stop offset="1" stop-color="#D7B17C" stop-opacity="0"/>
    </radialGradient>
    <radialGradient id="paint1_radial" cx="0" cy="0" r="1" gradientUnits="userSpaceOnUse" gradientTransform="translate(1021 533) rotate(90) scale(299)">
      <stop stop-color="#8D6546"/>
      <stop offset="1" stop-color="#8D6546" stop-opacity="0"/>
    </radialGradient>
    <linearGradient id="paint2_linear" x1="135" y1="94" x2="1014.43" y2="592.548" gradientUnits="userSpaceOnUse">
      <stop stop-color="#D7B17C"/>
      <stop offset="1" stop-color="#8D6546"/>
    </linearGradient>
    <linearGradient id="paint3_linear" x1="148" y1="170" x2="252.279" y2="287.296" gradientUnits="userSpaceOnUse">
      <stop stop-color="#F4E0CC"/>
      <stop offset="0.45" stop-color="#D7B17C"/>
      <stop offset="1" stop-color="#8D6546"/>
    </linearGradient>
  </defs>
</svg>
